<?xml version="1.0" encoding="utf-8"?>
<!-- Generator: Adobe Illustrator 24.1.0, SVG Export Plug-In . SVG Version: 6.00 Build 0)  -->
<svg version="1.0" id="Layer_1" xmlns="http://www.w3.org/2000/svg" xmlns:xlink="http://www.w3.org/1999/xlink" x="0px" y="0px"
	 viewBox="0 0 432 144" style="enable-background:new 0 0 432 144;" xml:space="preserve">
<style type="text/css">
	.st0{fill:#5067B0;}
	.st1{fill:#28377E;}
</style>
<g>
	<path class="st0" d="M179.4,29.06c0-5.23,3.94-8.76,9.11-8.76c4.06,0,6.26,2.31,7.35,4.52l-3.74,1.8
		c-0.56-1.35-1.99-2.46-3.61-2.46c-2.75,0-4.7,2.11-4.7,4.9c0,2.77,1.94,4.9,4.7,4.9c1.62,0,3.05-1.12,3.61-2.46l3.74,1.78
		c-1.09,2.16-3.28,4.55-7.35,4.55C183.34,37.82,179.4,34.26,179.4,29.06z"/>
	<path class="st0" d="M197.8,29.06c0-5.15,3.86-8.76,9.01-8.76s8.99,3.61,8.99,8.76c0,5.15-3.84,8.76-8.99,8.76
		S197.8,34.21,197.8,29.06z M211.38,29.06c0-2.77-1.79-4.9-4.57-4.9c-2.78,0-4.59,2.13-4.59,4.9c0,2.74,1.82,4.9,4.59,4.9
		C209.59,33.96,211.38,31.8,211.38,29.06z"/>
	<path class="st0" d="M230.71,37.51l-7.12-9.8v9.8h-4.34V20.58h4.47l6.82,9.32v-9.32h4.37v16.94H230.71z"/>
	<path class="st0" d="M250.72,37.51l-7.12-9.8v9.8h-4.34V20.58h4.47l6.82,9.32v-9.32h4.37v16.94H250.72z"/>
	<path class="st0" d="M259.28,37.51V20.58h12.34v3.81h-8v2.64h7.83v3.81h-7.83v2.87h8v3.81H259.28z"/>
	<path class="st0" d="M274.56,29.06c0-5.23,3.94-8.76,9.11-8.76c4.06,0,6.26,2.31,7.35,4.52l-3.74,1.8
		c-0.56-1.35-1.99-2.46-3.61-2.46c-2.75,0-4.7,2.11-4.7,4.9c0,2.77,1.94,4.9,4.7,4.9c1.62,0,3.05-1.12,3.61-2.46l3.74,1.78
		c-1.09,2.16-3.28,4.55-7.35,4.55C278.49,37.82,274.56,34.26,274.56,29.06z"/>
	<path class="st0" d="M298.01,37.51V24.38h-4.72v-3.81h13.76v3.81h-4.7v13.13H298.01z"/>
	<path class="st0" d="M309.9,37.51V20.58h4.34v16.94H309.9z"/>
	<path class="st0" d="M317.66,29.06c0-5.23,3.94-8.76,9.11-8.76c4.06,0,6.26,2.31,7.35,4.52l-3.74,1.8
		c-0.56-1.35-1.99-2.46-3.61-2.46c-2.75,0-4.7,2.11-4.7,4.9c0,2.77,1.94,4.9,4.7,4.9c1.62,0,3.05-1.12,3.61-2.46l3.74,1.78
		c-1.09,2.16-3.28,4.55-7.35,4.55C321.6,37.82,317.66,34.26,317.66,29.06z"/>
	<path class="st0" d="M336.95,30.66V20.58h4.42v9.93c0,2.01,1.21,3.45,3.56,3.45c2.32,0,3.53-1.45,3.53-3.45v-9.93h4.39v10.06
		c0,4.21-2.52,7.19-7.93,7.19C339.53,37.82,336.95,34.82,336.95,30.66z"/>
	<path class="st0" d="M360.42,37.51V24.38h-4.72v-3.81h13.76v3.81h-4.7v13.13H360.42z"/>
	<path class="st1" d="M179.4,56.1c0-5.23,3.94-8.76,9.11-8.76c4.06,0,6.26,2.31,7.35,4.52l-3.74,1.8c-0.56-1.35-1.99-2.46-3.61-2.46
		c-2.75,0-4.7,2.11-4.7,4.9c0,2.77,1.94,4.9,4.7,4.9c1.62,0,3.05-1.12,3.61-2.46l3.74,1.78c-1.09,2.16-3.28,4.55-7.35,4.55
		C183.34,64.86,179.4,61.31,179.4,56.1z"/>
	<path class="st1" d="M197.8,56.1c0-5.15,3.86-8.76,9.01-8.76s8.99,3.61,8.99,8.76c0,5.15-3.84,8.76-8.99,8.76
		S197.8,61.26,197.8,56.1z M211.38,56.1c0-2.77-1.79-4.9-4.57-4.9c-2.78,0-4.59,2.13-4.59,4.9c0,2.74,1.82,4.9,4.59,4.9
		C209.59,61,211.38,58.84,211.38,56.1z"/>
	<path class="st1" d="M223.02,64.56l-6.34-16.94h4.92l4.17,12.21l4.14-12.21h4.92l-6.34,16.94H223.02z"/>
	<path class="st1" d="M237.31,64.56V47.62h4.34v16.94H237.31z"/>
	<path class="st1" d="M245.98,64.56V47.62h7.07c5.3,0,9.11,3.2,9.11,8.46s-3.81,8.48-9.09,8.48H245.98z M257.71,56.08
		c0-2.62-1.57-4.65-4.64-4.65h-2.75v9.32h2.73C256,60.75,257.71,58.59,257.71,56.08z"/>
	<path class="st1" d="M265.6,60.04v-3.28h6.06v3.28H265.6z"/>
	<path class="st1" d="M277.98,64.56V53.21l-2.83,2.87l-2.47-2.62l5.88-5.84h3.76v16.94H277.98z"/>
	<path class="st1" d="M286.6,63.21l1.87-3.35c0.93,0.76,1.87,1.12,3.23,1.12c2.47,0,3.94-1.8,3.94-3.86v-0.2
		c-0.81,1.12-2.42,1.93-4.12,1.93c-3.03,0-5.86-1.96-5.86-5.56c0-3.48,2.83-5.94,6.71-5.94c5.33,0,7.65,3.86,7.65,8.73
		c0,5.38-3.23,8.76-8.33,8.76C289.73,64.84,287.86,64.2,286.6,63.21z M295.63,53.99c-0.1-1.37-0.91-2.79-3-2.79
		c-1.59,0-2.55,0.99-2.55,1.93c0,1.42,1.44,2.01,2.73,2.01C293.87,55.14,294.9,54.78,295.63,53.99z"/>
	<path class="st1" d="M310.85,56.1c0-5.23,3.94-8.76,9.11-8.76c4.06,0,6.26,2.31,7.35,4.52l-3.74,1.8
		c-0.56-1.35-1.99-2.46-3.61-2.46c-2.75,0-4.7,2.11-4.7,4.9c0,2.77,1.94,4.9,4.7,4.9c1.62,0,3.05-1.12,3.61-2.46l3.74,1.78
		c-1.09,2.16-3.28,4.55-7.35,4.55C314.79,64.86,310.85,61.31,310.85,56.1z"/>
	<path class="st1" d="M341.76,64.56v-6.81h-6.99v6.81h-4.34V47.62h4.34v6.32h6.99v-6.32h4.34v16.94H341.76z"/>
	<path class="st1" d="M361.81,64.56l-0.83-2.44h-6.64l-0.83,2.44h-4.92l6.34-16.94h5.48l6.34,16.94H361.81z M357.67,51.94
		l-2.15,6.37h4.27L357.67,51.94z"/>
	<path class="st1" d="M378.61,64.56l-2.83-5.69h-2.22v5.69h-4.34V47.62h8.43c3.74,0,5.86,2.49,5.86,5.64c0,2.95-1.77,4.52-3.36,5.08
		l3.43,6.22H378.61z M379.08,53.23c0-1.17-0.93-1.8-2.1-1.8h-3.43v3.63h3.43C378.15,55.06,379.08,54.43,379.08,53.23z"/>
	<path class="st1" d="M387.16,64.56V47.62h4.34v16.94H387.16z"/>
	<path class="st1" d="M399.03,64.56V51.43h-4.72v-3.81h13.76v3.81h-4.7v13.13H399.03z"/>
	<path class="st1" d="M416.5,64.56v-6.83l-6.39-10.11h4.9l3.66,6.25l3.61-6.25h4.92l-6.36,10.11v6.83H416.5z"/>
	<path class="st1" d="M179.4,83.15c0-5.23,3.94-8.76,9.11-8.76c4.06,0,6.26,2.31,7.35,4.52l-3.74,1.8
		c-0.56-1.35-1.99-2.46-3.61-2.46c-2.75,0-4.7,2.11-4.7,4.9c0,2.77,1.94,4.9,4.7,4.9c1.62,0,3.05-1.12,3.61-2.46l3.74,1.78
		c-1.09,2.16-3.28,4.55-7.35,4.55C183.34,91.91,179.4,88.35,179.4,83.15z"/>
	<path class="st1" d="M197.8,83.15c0-5.15,3.86-8.76,9.01-8.76s8.99,3.61,8.99,8.76c0,5.15-3.84,8.76-8.99,8.76
		S197.8,88.3,197.8,83.15z M211.38,83.15c0-2.77-1.79-4.9-4.57-4.9c-2.78,0-4.59,2.13-4.59,4.9c0,2.74,1.82,4.9,4.59,4.9
		C209.59,88.05,211.38,85.89,211.38,83.15z"/>
	<path class="st1" d="M230.71,91.6l-7.12-9.8v9.8h-4.34V74.67h4.47l6.82,9.32v-9.32h4.37V91.6H230.71z"/>
	<path class="st1" d="M250.72,91.6l-7.12-9.8v9.8h-4.34V74.67h4.47l6.82,9.32v-9.32h4.37V91.6H250.72z"/>
	<path class="st1" d="M259.28,91.6V74.67h12.34v3.81h-8v2.64h7.83v3.81h-7.83v2.87h8v3.81H259.28z"/>
	<path class="st1" d="M274.56,83.15c0-5.23,3.94-8.76,9.11-8.76c4.06,0,6.26,2.31,7.35,4.52l-3.74,1.8
		c-0.56-1.35-1.99-2.46-3.61-2.46c-2.75,0-4.7,2.11-4.7,4.9c0,2.77,1.94,4.9,4.7,4.9c1.62,0,3.05-1.12,3.61-2.46l3.74,1.78
		c-1.09,2.16-3.28,4.55-7.35,4.55C278.49,91.91,274.56,88.35,274.56,83.15z"/>
	<path class="st1" d="M298.01,91.6V78.47h-4.72v-3.81h13.76v3.81h-4.7V91.6H298.01z"/>
	<path class="st1" d="M309.9,91.6V74.67h4.34V91.6H309.9z"/>
	<path class="st1" d="M317.66,83.15c0-5.15,3.86-8.76,9.01-8.76s8.99,3.61,8.99,8.76c0,5.15-3.84,8.76-8.99,8.76
		S317.66,88.3,317.66,83.15z M331.24,83.15c0-2.77-1.79-4.9-4.57-4.9c-2.78,0-4.59,2.13-4.59,4.9c0,2.74,1.82,4.9,4.59,4.9
		C329.45,88.05,331.24,85.89,331.24,83.15z"/>
	<path class="st1" d="M350.57,91.6l-7.12-9.8v9.8h-4.34V74.67h4.47l6.82,9.32v-9.32h4.37V91.6H350.57z"/>
</g>
<g>
	<path class="st1" d="M77.15,61.11c0.28,0,0.5-0.22,0.5-0.5v-7.32c0-0.28-0.22-0.5-0.5-0.5h-7.81c-0.28,0-0.5,0.22-0.5,0.5v7.32
		c0,0.28,0.22,0.5,0.5,0.5H77.15z"/>
</g>
<g>
	<path class="st1" d="M83.36,56.95c0-10.54,7.82-18.67,18.67-18.67c6.29,0,11.93,3.07,15.12,7.9c0.21,0.32,0.1,0.75-0.23,0.93
		l-6.79,3.9c-0.3,0.17-0.67,0.06-0.86-0.22c-1.47-2.24-4.16-3.56-7.25-3.56c-5.78,0-9.56,3.99-9.56,9.72s3.78,9.72,9.56,9.72
		c3.09,0,5.78-1.32,7.25-3.6c0.19-0.29,0.56-0.4,0.86-0.23l6.79,3.94c0.33,0.19,0.44,0.62,0.23,0.93c-3.19,4.83-8.78,7.9-15.13,7.9
		C91.18,75.62,83.36,67.49,83.36,56.95z"/>
	<path class="st1" d="M145.54,47.9h-7.53c-0.36,0-0.66,0.3-0.66,0.66v25.63c0,0.36-0.3,0.66-0.66,0.66h-7.84
		c-0.36,0-0.66-0.3-0.66-0.66V48.56c0-0.36-0.3-0.66-0.66-0.66h-7.53c-0.36,0-0.66-0.3-0.66-0.66v-7.53c0-0.36,0.3-0.66,0.66-0.66
		h25.53c0.36,0,0.66,0.3,0.66,0.66v7.53C146.2,47.6,145.9,47.9,145.54,47.9z"/>
</g>
<g>
	<path class="st0" d="M56.99,104.46c0.57-0.32,1.3-0.03,1.5,0.59l0.49,1.46l0.62,1.72c0.16,0.43,0.03,0.92-0.33,1.22l-3.18,2.66
		c-1.06,0.85-2.49,1.04-3.74,0.49l-1.31-0.58l-5.28,3.76c-0.93,0.66-2.14,0.85-3.23,0.49L41.7,116l-14.04,7.98
		c-1,0.57-2.19,0.62-3.22,0.18l-2.39,2.6c-1.18,1.28-3.11,1.54-4.59,0.61l-0.8-0.5l-1.01,0.82c-0.65,0.53-1.47,0.82-2.3,0.82
		c-0.42,0-0.85-0.07-1.26-0.22c-0.8-0.29-1.45-0.88-1.89-1.6l-4.75-7.86c-0.51-0.84-0.65-1.86-0.4-2.8
		c0.25-0.94,0.88-1.76,1.73-2.24l16.11-9.03l-3.44-5.76c-0.38-0.64-0.55-1.37-0.5-2.11l5.32-77.98c0.13-1.95,1.82-3.46,3.79-3.38
		l22.18,0.69c0.84,0.04,1.48,0.75,1.44,1.59l-0.11,2.36c-0.04,0.84-0.75,1.48-1.59,1.44l-20.45-0.61L24.36,96.7l4.09,6.85
		c0.5,0.84,0.64,1.85,0.39,2.79c-0.25,0.94-0.88,1.75-1.73,2.23l-16.1,9.02l2.79,4.61l0.41-0.33c1.21-0.99,2.91-1.09,4.22-0.26
		l0.64,0.4l2.41-2.62c1.17-1.27,3.04-1.53,4.5-0.67l13.74-7.8c0.88-0.5,1.95-0.61,2.91-0.29l0.74,0.24l5.37-3.82
		c1.04-0.74,2.4-0.88,3.57-0.36l1.25,0.55L56.99,104.46L56.99,104.46z"/>
</g>
<g>
	<path class="st0" d="M153.97,95.66c-0.85,0-1.7-0.3-2.37-0.87l-0.06-0.05l-5.24-1.01l-1.4,0.69c-0.64,0.31-1.4,0.05-1.71-0.59
		l-1.24-2.55c-0.31-0.64-0.05-1.4,0.59-1.71l1.94-0.95c0.7-0.34,1.51-0.45,2.28-0.3l5.46,1.06l0-0.84c0-0.58,0.14-1.16,0.41-1.67
		l2.21-4.22l-0.07-58.55l-10.81-0.12c-0.64-0.01-1.15-0.53-1.14-1.17l0.03-3.09c0.01-0.64,0.53-1.15,1.17-1.14l12.56,0.14
		c1.98,0.02,3.58,1.65,3.59,3.62l0.07,60.74c0,0.58-0.14,1.16-0.41,1.68l-2.21,4.23l-0.01,2.96c0,1.09-0.45,2.16-1.29,2.87
		C155.62,95.38,154.8,95.66,153.97,95.66z M157.61,88.53L157.61,88.53C157.61,88.54,157.61,88.54,157.61,88.53z M154.83,83.07
		C154.83,83.07,154.83,83.07,154.83,83.07L154.83,83.07z"/>
</g>
<path class="st1" d="M62.59,61.03h-2.55c-0.28,0-0.5-0.22-0.5-0.5V39.6c0-0.28-0.22-0.5-0.5-0.5h-5.88c-0.15,0-0.29,0.07-0.39,0.18
	L35.06,60.89c-0.07,0.09-0.11,0.2-0.11,0.32v7.64c0,0.27,0.22,0.5,0.5,0.5h14.57c0.27,0,0.5,0.22,0.5,0.5v4.46
	c0,0.28,0.22,0.5,0.5,0.5h8.03c0.28,0,0.5-0.22,0.5-0.5v-4.46c0-0.27,0.22-0.5,0.5-0.5h2.55c0.28,0,0.5-0.22,0.5-0.5v-7.32
	C63.09,61.25,62.86,61.03,62.59,61.03z M50.37,61.03h-4.7c-0.13,0-0.19-0.15-0.11-0.24l4.69-5.64c0.09-0.1,0.26-0.04,0.26,0.1
	l0.01,5.64C50.52,60.97,50.46,61.03,50.37,61.03z"/>
</svg>
